<svg width="32.000000" height="32.000000" viewBox="0 0 32 32" fill="none" xmlns="http://www.w3.org/2000/svg" xmlns:xlink="http://www.w3.org/1999/xlink">
	<desc>
			Created with Pixso.
	</desc>
	<defs/>
	<path id="Vector" d="M24.1641 7.65906C22.5431 6.8783 20.8325 6.32104 19.0751 6.0011C19.0592 5.99829 19.0428 6.00073 19.0283 6.00806C19.0137 6.01538 19.0017 6.02734 18.9939 6.04211C18.7736 6.45215 18.5298 6.9884 18.3595 7.4082C16.4651 7.10645 14.5382 7.10645 12.6439 7.4082C12.454 6.94055 12.239 6.48438 12.0001 6.04211C11.9922 6.02747 11.9801 6.01575 11.9656 6.00842C11.951 6.0011 11.9348 5.99854 11.9189 6.0011C10.1611 6.31934 8.4502 6.87683 6.82996 7.65906C6.81604 7.66455 6.80444 7.67505 6.79712 7.6886C3.55652 12.7705 2.66748 17.7279 3.10339 22.6229C3.10498 22.6459 3.11902 22.6689 3.13623 22.6836C5.02319 24.1508 7.13391 25.2708 9.3783 25.9962C9.39417 26.0015 9.41125 26.0012 9.42688 25.9956C9.44263 25.99 9.4563 25.9794 9.46582 25.9651C9.94702 25.2762 10.3752 24.5498 10.7439 23.7856C10.7516 23.7699 10.7543 23.752 10.7515 23.7345C10.7487 23.717 10.7405 23.701 10.7283 23.6888C10.7202 23.6809 10.7107 23.6747 10.7002 23.6709C10.027 23.3993 9.375 23.0731 8.75024 22.6951C8.73279 22.6847 8.71973 22.6677 8.71399 22.6476C8.70813 22.6274 8.70996 22.6057 8.71899 22.5869C8.72424 22.5747 8.7323 22.564 8.74243 22.5558C8.87366 22.4524 9.00488 22.3442 9.12988 22.236C9.14087 22.2267 9.15417 22.2207 9.16821 22.2186C9.18225 22.2166 9.19653 22.2186 9.20959 22.2245C13.3018 24.1858 17.7313 24.1858 21.7736 22.2245C21.787 22.2184 21.8019 22.2162 21.8164 22.2181C21.8311 22.2202 21.8448 22.2263 21.8563 22.236C21.9813 22.3442 22.1125 22.4524 22.2438 22.5558C22.2544 22.5638 22.2629 22.5747 22.2687 22.5872C22.2744 22.5996 22.277 22.6134 22.2764 22.6272C22.2758 22.641 22.2719 22.6544 22.2651 22.6663C22.2583 22.6781 22.2489 22.688 22.2375 22.6951C21.6141 23.0765 20.9613 23.4023 20.286 23.6692C20.2753 23.6733 20.2655 23.6798 20.2573 23.6884C20.2493 23.6968 20.243 23.7072 20.2391 23.7184C20.2355 23.7294 20.2341 23.741 20.2349 23.7526C20.2357 23.764 20.2388 23.7754 20.2438 23.7856C20.6188 24.5482 21.0485 25.2762 21.5204 25.9651C21.5299 25.9794 21.5436 25.99 21.5593 25.9956C21.575 26.0012 21.592 26.0015 21.6079 25.9962C23.856 25.2731 25.9701 24.1528 27.8594 22.6836C27.8689 22.6768 27.8767 22.6677 27.8824 22.6572C27.8881 22.6467 27.8914 22.635 27.8922 22.6229C28.4141 16.9637 27.0188 12.0474 24.1953 7.69019C24.1925 7.68298 24.1882 7.67651 24.1829 7.67114C24.1775 7.66577 24.1711 7.66162 24.1641 7.65906ZM11.3549 19.6417C10.1221 19.6417 9.10803 18.4543 9.10803 16.9982C9.10803 15.5403 10.1033 14.353 11.3549 14.353C12.6158 14.353 13.6205 15.5502 13.6017 16.9982C13.6017 18.4543 12.6064 19.6417 11.3549 19.6417ZM19.661 19.6417C18.4298 19.6417 17.4142 18.4543 17.4142 16.9982C17.4142 15.5403 18.4094 14.353 19.661 14.353C20.922 14.353 21.9282 15.5502 21.9078 16.9982C21.9078 18.4543 20.922 19.6417 19.661 19.6417Z" fill="#ABB2BF" fill-opacity="1.000000" fill-rule="nonzero"/>
</svg>
