<svg width="32.000000" height="32.000000" viewBox="0 0 32 32" fill="none" xmlns="http://www.w3.org/2000/svg" xmlns:xlink="http://www.w3.org/1999/xlink">
	<desc>
			Created with Pixso.
	</desc>
	<defs/>
	<path id="Vector" d="M16.5 4C10.152 4 5 9.15198 5 15.5C5 21.848 10.152 27 16.5 27C22.8365 27 28 21.848 28 15.5C28 9.15198 22.8365 4 16.5 4ZM24.0957 9.30151C25.5115 11.0255 26.2952 13.1816 26.3167 15.4124C25.9918 15.3505 22.7488 14.6892 19.4813 15.1003C19.4066 14.9393 19.3434 14.764 19.2687 14.5901C19.0688 14.1157 18.8446 13.6298 18.6204 13.167C22.2371 11.6964 23.8844 9.57605 24.0972 9.30005L24.0957 9.30151ZM16.5 5.69629C18.994 5.69629 21.2769 6.63062 23.0118 8.16589C22.8365 8.41602 21.3516 10.3983 17.8599 11.7079C16.2499 8.75232 14.4674 6.33167 14.1929 5.95789C14.9491 5.78125 15.7234 5.69348 16.5 5.69629ZM12.3212 6.61914C13.6375 8.44336 14.8535 10.3379 15.9639 12.2944C11.3739 13.5162 7.32007 13.4918 6.88318 13.4918C7.19922 12.005 7.85437 10.6113 8.79761 9.41943C9.74097 8.22766 10.9468 7.26978 12.3212 6.62061L12.3212 6.61914ZM6.67175 15.5144L6.67175 15.2125C7.09583 15.2269 11.8612 15.2887 16.7631 13.8167C17.0491 14.3644 17.3108 14.9264 17.5609 15.4871L17.1727 15.5992C12.1099 17.2336 9.41602 21.6985 9.19031 22.0737C7.5686 20.2733 6.67126 17.936 6.67175 15.5129L6.67175 15.5144ZM16.5 25.3282C14.3173 25.3315 12.1964 24.6028 10.4769 23.2582C10.6494 22.896 12.6461 19.0549 18.1833 17.1215C18.2092 17.1085 18.2207 17.1085 18.2466 17.097C19.1801 19.5068 19.8813 22.0002 20.3409 24.5433C19.1277 25.0647 17.8206 25.3318 16.5 25.3282ZM21.9769 23.6449C21.8762 23.0454 21.3516 20.1776 20.0679 16.6471C23.1484 16.1613 25.8423 16.9591 26.1787 17.0712C25.9691 18.3975 25.4877 19.6661 24.7643 20.7975C24.0409 21.9287 23.0914 22.8982 21.9755 23.6449L21.9769 23.6449Z" fill="#ABB2BF" fill-opacity="1.000000" fill-rule="evenodd"/>
</svg>
