<svg width="32.000000" height="32.000000" viewBox="0 0 32 32" fill="none" xmlns="http://www.w3.org/2000/svg" xmlns:xlink="http://www.w3.org/1999/xlink">
	<desc>
			Created with Pixso.
	</desc>
	<defs/>
	<path id="Vector" d="M16 16C16 15.116 16.3687 14.2681 17.0251 13.6429C17.6814 13.0178 18.5718 12.6666 19.5 12.6666C20.4282 12.6666 21.3186 13.0178 21.9749 13.6429C22.6313 14.2681 23 15.116 23 16C23 16.884 22.6313 17.7319 21.9749 18.3571C21.3186 18.9822 20.4282 19.3334 19.5 19.3334C18.5718 19.3334 17.6814 18.9822 17.0251 18.3571C16.3687 17.7319 16 16.884 16 16ZM9 22.6666C9 21.7826 9.36865 20.9348 10.0251 20.3097C10.6814 19.6846 11.5718 19.3334 12.5 19.3334L16 19.3334L16 22.6666C16 23.5508 15.6313 24.3986 14.9749 25.0237C14.3186 25.6488 13.4282 26 12.5 26C11.5718 26 10.6814 25.6488 10.0251 25.0237C9.36865 24.3986 9 23.5508 9 22.6666ZM16 6L16 12.6666L19.5 12.6666C20.4282 12.6666 21.3186 12.3154 21.9749 11.6903C22.6313 11.0652 23 10.2174 23 9.33337C23 8.44922 22.6313 7.60144 21.9749 6.97632C21.3186 6.3512 20.4282 6 19.5 6L16 6ZM9 9.33337C9 10.2174 9.36865 11.0652 10.0251 11.6903C10.6814 12.3154 11.5718 12.6666 12.5 12.6666L16 12.6666L16 6L12.5 6C11.5718 6 10.6814 6.3512 10.0251 6.97632C9.36865 7.60144 9 8.44922 9 9.33337ZM9 16C9 16.884 9.36865 17.7319 10.0251 18.3571C10.6814 18.9822 11.5718 19.3334 12.5 19.3334L16 19.3334L16 12.6666L12.5 12.6666C11.5718 12.6666 10.6814 13.0178 10.0251 13.6429C9.36865 14.2681 9 15.116 9 16Z" fill="#ABB2BF" fill-opacity="1.000000" fill-rule="nonzero"/>
</svg>
