<svg width="32.000000" height="32.000000" viewBox="0 0 32 32" fill="none" xmlns="http://www.w3.org/2000/svg" xmlns:xlink="http://www.w3.org/1999/xlink">
	<desc>
			Created with Pixso.
	</desc>
	<defs/>
	<path id="Vector" d="M15.5 6C9.69873 6 5 10.5881 5 16.2529C5 20.7899 8.00562 24.6219 12.1794 25.9805C12.7043 26.0701 12.9014 25.7626 12.9014 25.4934C12.9014 25.2499 12.8882 24.4425 12.8882 23.5837C10.25 24.058 9.56738 22.9558 9.35742 22.379C9.23926 22.0844 8.72754 21.1743 8.28125 20.9308C7.91382 20.7386 7.38867 20.2644 8.26807 20.2516C9.09497 20.2388 9.68555 20.9949 9.88257 21.3025C10.8274 22.8533 12.3369 22.4175 12.9407 22.1484C13.0325 21.4819 13.3081 21.0333 13.6101 20.7771C11.2737 20.5208 8.83252 19.6364 8.83252 15.7146C8.83252 14.5996 9.23926 13.6769 9.90869 12.9592C9.80371 12.7029 9.43628 11.652 10.0137 10.2422C10.0137 10.2422 10.8931 9.97302 12.9014 11.2931C13.7412 11.0624 14.6338 10.947 15.5264 10.947C16.4187 10.947 17.3113 11.0624 18.1514 11.2931C20.1594 9.96021 21.0388 10.2422 21.0388 10.2422C21.6162 11.652 21.2488 12.7029 21.1438 12.9592C21.8132 13.6769 22.22 14.5868 22.22 15.7146C22.22 19.6492 19.7656 20.5208 17.4294 20.7771C17.8101 21.0974 18.1382 21.7126 18.1382 22.6738C18.1382 24.0452 18.125 25.1473 18.125 25.4934C18.125 25.7626 18.3218 26.0829 18.8469 25.9805C20.9314 25.2935 22.7429 23.9854 24.0261 22.2404C25.3093 20.4954 25.9995 18.4012 26 16.2529C26 10.5881 21.3013 6 15.5 6Z" fill="#ABB2BF" fill-opacity="1.000000" fill-rule="nonzero"/>
</svg>
