<svg width="32.000000" height="32.000000" viewBox="0 0 32 32" fill="none" xmlns="http://www.w3.org/2000/svg" xmlns:xlink="http://www.w3.org/1999/xlink">
	<desc>
			Created with Pixso.
	</desc>
	<defs/>
	<path id="Vector" d="M4 5.71899C4 4.76953 4.78906 4 5.76245 4L26.2375 4C27.2109 4 28 4.76953 28 5.71899L28 26.281C28 27.2305 27.2109 28 26.2375 28L5.76245 28C4.78906 28 4 27.2305 4 26.281L4 5.71899ZM11.4146 24.0909L11.4146 13.2535L7.81299 13.2535L7.81299 24.0909L11.4146 24.0909ZM9.6145 11.7729C10.8701 11.7729 11.6516 10.942 11.6516 9.901C11.6289 8.83752 10.8716 8.02905 9.63843 8.02905C8.40552 8.02905 7.6001 8.83899 7.6001 9.901C7.6001 10.942 8.38159 11.7729 9.59058 11.7729L9.6145 11.7729ZM16.9766 24.0909L16.9766 18.0385C16.9766 17.7145 17.0005 17.3905 17.0964 17.1595C17.356 16.5129 17.9485 15.8425 18.9446 15.8425C20.248 15.8425 20.7686 16.8354 20.7686 18.2935L20.7686 24.0909L24.3701 24.0909L24.3701 17.875C24.3701 14.545 22.594 12.9969 20.2241 12.9969C18.313 12.9969 17.4565 14.047 16.9766 14.7865L16.9766 14.824L16.9524 14.824C16.9604 14.8115 16.9685 14.799 16.9766 14.7865L16.9766 13.2535L13.3765 13.2535C13.4214 14.2705 13.3765 24.0909 13.3765 24.0909L16.9766 24.0909Z" fill="#ABB2BF" fill-opacity="1.000000" fill-rule="nonzero"/>
</svg>
