
<svg width="52" height="52" viewBox="0 0 52 52" xmlns="http://www.w3.org/2000/svg" fillOpacity='1'>
		<g id="defaultLogo">
			<path xmlns="http://www.w3.org/2000/svg" d="M0 0H52V52H0z"/><path xmlns="http://www.w3.org/2000/svg" fill="#FFFFFF" fill-rule="evenodd" d="M26 0L52 0L52 39L26 39L26 26L39 26L39 13L26 13L26 0ZM0 13L26 13L26 26L13 26L13 39L26 39L26 52L0 52L0 13Z" clip-rule="evenodd"/>
		</g>
		<g id="discord">
			<path  fill="#ABB2BF" d="M24.1641 7.65906C22.5431 6.8783 20.8325 6.32104 19.0751 6.0011C19.0592 5.99829 19.0428 6.00073 19.0283 6.00806C19.0137 6.01538 19.0017 6.02734 18.9939 6.04211C18.7736 6.45215 18.5298 6.9884 18.3595 7.4082C16.4651 7.10645 14.5382 7.10645 12.6439 7.4082C12.454 6.94055 12.239 6.48438 12.0001 6.04211C11.9922 6.02747 11.9801 6.01575 11.9656 6.00842C11.951 6.0011 11.9348 5.99854 11.9189 6.0011C10.1611 6.31934 8.4502 6.87683 6.82996 7.65906C6.81604 7.66455 6.80444 7.67505 6.79712 7.6886C3.55652 12.7705 2.66748 17.7279 3.10339 22.6229C3.10498 22.6459 3.11902 22.6689 3.13623 22.6836C5.02319 24.1508 7.13391 25.2708 9.3783 25.9962C9.39417 26.0015 9.41125 26.0012 9.42688 25.9956C9.44263 25.99 9.4563 25.9794 9.46582 25.9651C9.94702 25.2762 10.3752 24.5498 10.7439 23.7856C10.7516 23.7699 10.7543 23.752 10.7515 23.7345C10.7487 23.717 10.7405 23.701 10.7283 23.6888C10.7202 23.6809 10.7107 23.6747 10.7002 23.6709C10.027 23.3993 9.375 23.0731 8.75024 22.6951C8.73279 22.6847 8.71973 22.6677 8.71399 22.6476C8.70813 22.6274 8.70996 22.6057 8.71899 22.5869C8.72424 22.5747 8.7323 22.564 8.74243 22.5558C8.87366 22.4524 9.00488 22.3442 9.12988 22.236C9.14087 22.2267 9.15417 22.2207 9.16821 22.2186C9.18225 22.2166 9.19653 22.2186 9.20959 22.2245C13.3018 24.1858 17.7313 24.1858 21.7736 22.2245C21.787 22.2184 21.8019 22.2162 21.8164 22.2181C21.8311 22.2202 21.8448 22.2263 21.8563 22.236C21.9813 22.3442 22.1125 22.4524 22.2438 22.5558C22.2544 22.5638 22.2629 22.5747 22.2687 22.5872C22.2744 22.5996 22.277 22.6134 22.2764 22.6272C22.2758 22.641 22.2719 22.6544 22.2651 22.6663C22.2583 22.6781 22.2489 22.688 22.2375 22.6951C21.6141 23.0765 20.9613 23.4023 20.286 23.6692C20.2753 23.6733 20.2655 23.6798 20.2573 23.6884C20.2493 23.6968 20.243 23.7072 20.2391 23.7184C20.2355 23.7294 20.2341 23.741 20.2349 23.7526C20.2357 23.764 20.2388 23.7754 20.2438 23.7856C20.6188 24.5482 21.0485 25.2762 21.5204 25.9651C21.5299 25.9794 21.5436 25.99 21.5593 25.9956C21.575 26.0012 21.592 26.0015 21.6079 25.9962C23.856 25.2731 25.9701 24.1528 27.8594 22.6836C27.8689 22.6768 27.8767 22.6677 27.8824 22.6572C27.8881 22.6467 27.8914 22.635 27.8922 22.6229C28.4141 16.9637 27.0188 12.0474 24.1953 7.69019C24.1925 7.68298 24.1882 7.67651 24.1829 7.67114C24.1775 7.66577 24.1711 7.66162 24.1641 7.65906ZM11.3549 19.6417C10.1221 19.6417 9.10803 18.4543 9.10803 16.9982C9.10803 15.5403 10.1033 14.353 11.3549 14.353C12.6158 14.353 13.6205 15.5502 13.6017 16.9982C13.6017 18.4543 12.6064 19.6417 11.3549 19.6417ZM19.661 19.6417C18.4298 19.6417 17.4142 18.4543 17.4142 16.9982C17.4142 15.5403 18.4094 14.353 19.661 14.353C20.922 14.353 21.9282 15.5502 21.9078 16.9982C21.9078 18.4543 20.922 19.6417 19.661 19.6417Z"/>
		</g>
		<g id="dots">
			<circle xmlns="http://www.w3.org/2000/svg" cx="2" cy="2" r="2" fill="#ABB2BF"/><circle xmlns="http://www.w3.org/2000/svg" cx="22" cy="2" r="2" fill="#ABB2BF"/><circle xmlns="http://www.w3.org/2000/svg" cx="42" cy="2" r="2" fill="#ABB2BF"/><circle xmlns="http://www.w3.org/2000/svg" cx="62" cy="2" r="2" fill="#ABB2BF"/><circle xmlns="http://www.w3.org/2000/svg" cx="82" cy="2" r="2" fill="#ABB2BF"/><circle xmlns="http://www.w3.org/2000/svg" cx="2" cy="22" r="2" fill="#ABB2BF"/><circle xmlns="http://www.w3.org/2000/svg" cx="22" cy="22" r="2" fill="#ABB2BF"/><circle xmlns="http://www.w3.org/2000/svg" cx="42" cy="22" r="2" fill="#ABB2BF"/><circle xmlns="http://www.w3.org/2000/svg" cx="62" cy="22" r="2" fill="#ABB2BF"/><circle xmlns="http://www.w3.org/2000/svg" cx="82" cy="22" r="2" fill="#ABB2BF"/><circle xmlns="http://www.w3.org/2000/svg" cx="2" cy="42" r="2" fill="#ABB2BF"/><circle xmlns="http://www.w3.org/2000/svg" cx="22" cy="42" r="2" fill="#ABB2BF"/><circle xmlns="http://www.w3.org/2000/svg" cx="42" cy="42" r="2" fill="#ABB2BF"/><circle xmlns="http://www.w3.org/2000/svg" cx="62" cy="42" r="2" fill="#ABB2BF"/><circle xmlns="http://www.w3.org/2000/svg" cx="82" cy="42" r="2" fill="#ABB2BF"/><circle xmlns="http://www.w3.org/2000/svg" cx="2" cy="62" r="2" fill="#ABB2BF"/><circle xmlns="http://www.w3.org/2000/svg" cx="22" cy="62" r="2" fill="#ABB2BF"/><circle xmlns="http://www.w3.org/2000/svg" cx="42" cy="62" r="2" fill="#ABB2BF"/><circle xmlns="http://www.w3.org/2000/svg" cx="62" cy="62" r="2" fill="#ABB2BF"/><circle xmlns="http://www.w3.org/2000/svg" cx="82" cy="62" r="2" fill="#ABB2BF"/><circle xmlns="http://www.w3.org/2000/svg" cx="2" cy="82" r="2" fill="#ABB2BF"/><circle xmlns="http://www.w3.org/2000/svg" cx="22" cy="82" r="2" fill="#ABB2BF"/><circle xmlns="http://www.w3.org/2000/svg" cx="42" cy="82" r="2" fill="#ABB2BF"/><circle xmlns="http://www.w3.org/2000/svg" cx="62" cy="82" r="2" fill="#ABB2BF"/><circle xmlns="http://www.w3.org/2000/svg" cx="82" cy="82" r="2" fill="#ABB2BF"/>
		</g>
		<g id="dribble">
			<path xmlns="http://www.w3.org/2000/svg" fill="#ABB2BF" fill-rule="evenodd" d="M16.5 4C10.152 4 5 9.15198 5 15.5C5 21.848 10.152 27 16.5 27C22.8365 27 28 21.848 28 15.5C28 9.15198 22.8365 4 16.5 4ZM24.0957 9.30151C25.5115 11.0255 26.2952 13.1816 26.3167 15.4124C25.9918 15.3505 22.7488 14.6892 19.4813 15.1003C19.4066 14.9393 19.3434 14.764 19.2687 14.5901C19.0688 14.1157 18.8446 13.6298 18.6204 13.167C22.2371 11.6964 23.8844 9.57605 24.0972 9.30005L24.0957 9.30151ZM16.5 5.69629C18.994 5.69629 21.2769 6.63062 23.0118 8.16589C22.8365 8.41602 21.3516 10.3983 17.8599 11.7079C16.2499 8.75232 14.4674 6.33167 14.1929 5.95789C14.9491 5.78125 15.7234 5.69348 16.5 5.69629ZM12.3212 6.61914C13.6375 8.44336 14.8535 10.3379 15.9639 12.2944C11.3739 13.5162 7.32007 13.4918 6.88318 13.4918C7.19922 12.005 7.85437 10.6113 8.79761 9.41943C9.74097 8.22766 10.9468 7.26978 12.3212 6.62061L12.3212 6.61914ZM6.67175 15.5144L6.67175 15.2125C7.09583 15.2269 11.8612 15.2887 16.7631 13.8167C17.0491 14.3644 17.3108 14.9264 17.5609 15.4871L17.1727 15.5992C12.1099 17.2336 9.41602 21.6985 9.19031 22.0737C7.5686 20.2733 6.67126 17.936 6.67175 15.5129L6.67175 15.5144ZM16.5 25.3282C14.3173 25.3315 12.1964 24.6028 10.4769 23.2582C10.6494 22.896 12.6461 19.0549 18.1833 17.1215C18.2092 17.1085 18.2207 17.1085 18.2466 17.097C19.1801 19.5068 19.8813 22.0002 20.3409 24.5433C19.1277 25.0647 17.8206 25.3318 16.5 25.3282ZM21.9769 23.6449C21.8762 23.0454 21.3516 20.1776 20.0679 16.6471C23.1484 16.1613 25.8423 16.9591 26.1787 17.0712C25.9691 18.3975 25.4877 19.6661 24.7643 20.7975C24.0409 21.9287 23.0914 22.8982 21.9755 23.6449L21.9769 23.6449Z"/>
		</g>
		<g id="email">
			<path xmlns="http://www.w3.org/2000/svg" fill="#ABB2BF" d="M5.0719 9.20288C5.2168 8.57715 5.57312 8.01831 6.08228 7.61816C6.59155 7.2179 7.22363 7 7.875 7L25.125 7C25.7764 7 26.4084 7.2179 26.9177 7.61816C27.4269 8.01831 27.7832 8.57715 27.9281 9.20288L16.5 16.0865L5.0719 9.20288ZM5 10.8208L5 20.8848L13.3418 15.8442L5 10.8208ZM14.719 16.6758L5.27454 22.3807C5.50793 22.8656 5.87622 23.2753 6.33655 23.5619C6.79688 23.8486 7.33044 24.0005 7.875 24L25.125 24C25.6694 24.0001 26.2028 23.8479 26.6628 23.5609C27.123 23.274 27.491 22.8643 27.724 22.3793L18.2797 16.6744L16.5 17.7468L14.719 16.6744L14.719 16.6758ZM19.6582 15.8457L28 20.8848L28 10.8208L19.6582 15.8442L19.6582 15.8457Z"/>
		</g>
		<g id="figma">
			<path xmlns="http://www.w3.org/2000/svg" fill="#ABB2BF" d="M16 16C16 15.116 16.3687 14.2681 17.0251 13.6429C17.6814 13.0178 18.5718 12.6666 19.5 12.6666C20.4282 12.6666 21.3186 13.0178 21.9749 13.6429C22.6313 14.2681 23 15.116 23 16C23 16.884 22.6313 17.7319 21.9749 18.3571C21.3186 18.9822 20.4282 19.3334 19.5 19.3334C18.5718 19.3334 17.6814 18.9822 17.0251 18.3571C16.3687 17.7319 16 16.884 16 16ZM9 22.6666C9 21.7826 9.36865 20.9348 10.0251 20.3097C10.6814 19.6846 11.5718 19.3334 12.5 19.3334L16 19.3334L16 22.6666C16 23.5508 15.6313 24.3986 14.9749 25.0237C14.3186 25.6488 13.4282 26 12.5 26C11.5718 26 10.6814 25.6488 10.0251 25.0237C9.36865 24.3986 9 23.5508 9 22.6666ZM16 6L16 12.6666L19.5 12.6666C20.4282 12.6666 21.3186 12.3154 21.9749 11.6903C22.6313 11.0652 23 10.2174 23 9.33337C23 8.44922 22.6313 7.60144 21.9749 6.97632C21.3186 6.3512 20.4282 6 19.5 6L16 6ZM9 9.33337C9 10.2174 9.36865 11.0652 10.0251 11.6903C10.6814 12.3154 11.5718 12.6666 12.5 12.6666L16 12.6666L16 6L12.5 6C11.5718 6 10.6814 6.3512 10.0251 6.97632C9.36865 7.60144 9 8.44922 9 9.33337ZM9 16C9 16.884 9.36865 17.7319 10.0251 18.3571C10.6814 18.9822 11.5718 19.3334 12.5 19.3334L16 19.3334L16 12.6666L12.5 12.6666C11.5718 12.6666 10.6814 13.0178 10.0251 13.6429C9.36865 14.2681 9 15.116 9 16Z"/>
		</g>
		<g id="github">
			<path xmlns="http://www.w3.org/2000/svg" fill="#ABB2BF" d="M15.5 6C9.69873 6 5 10.5881 5 16.2529C5 20.7899 8.00562 24.6219 12.1794 25.9805C12.7043 26.0701 12.9014 25.7626 12.9014 25.4934C12.9014 25.2499 12.8882 24.4425 12.8882 23.5837C10.25 24.058 9.56738 22.9558 9.35742 22.379C9.23926 22.0844 8.72754 21.1743 8.28125 20.9308C7.91382 20.7386 7.38867 20.2644 8.26807 20.2516C9.09497 20.2388 9.68555 20.9949 9.88257 21.3025C10.8274 22.8533 12.3369 22.4175 12.9407 22.1484C13.0325 21.4819 13.3081 21.0333 13.6101 20.7771C11.2737 20.5208 8.83252 19.6364 8.83252 15.7146C8.83252 14.5996 9.23926 13.6769 9.90869 12.9592C9.80371 12.7029 9.43628 11.652 10.0137 10.2422C10.0137 10.2422 10.8931 9.97302 12.9014 11.2931C13.7412 11.0624 14.6338 10.947 15.5264 10.947C16.4187 10.947 17.3113 11.0624 18.1514 11.2931C20.1594 9.96021 21.0388 10.2422 21.0388 10.2422C21.6162 11.652 21.2488 12.7029 21.1438 12.9592C21.8132 13.6769 22.22 14.5868 22.22 15.7146C22.22 19.6492 19.7656 20.5208 17.4294 20.7771C17.8101 21.0974 18.1382 21.7126 18.1382 22.6738C18.1382 24.0452 18.125 25.1473 18.125 25.4934C18.125 25.7626 18.3218 26.0829 18.8469 25.9805C20.9314 25.2935 22.7429 23.9854 24.0261 22.2404C25.3093 20.4954 25.9995 18.4012 26 16.2529C26 10.5881 21.3013 6 15.5 6Z"/>
		</g>
		<g id="linkedin">
			<path xmlns="http://www.w3.org/2000/svg" fill="#ABB2BF" d="M4 5.71899C4 4.76953 4.78906 4 5.76245 4L26.2375 4C27.2109 4 28 4.76953 28 5.71899L28 26.281C28 27.2305 27.2109 28 26.2375 28L5.76245 28C4.78906 28 4 27.2305 4 26.281L4 5.71899ZM11.4146 24.0909L11.4146 13.2535L7.81299 13.2535L7.81299 24.0909L11.4146 24.0909ZM9.6145 11.7729C10.8701 11.7729 11.6516 10.942 11.6516 9.901C11.6289 8.83752 10.8716 8.02905 9.63843 8.02905C8.40552 8.02905 7.6001 8.83899 7.6001 9.901C7.6001 10.942 8.38159 11.7729 9.59058 11.7729L9.6145 11.7729ZM16.9766 24.0909L16.9766 18.0385C16.9766 17.7145 17.0005 17.3905 17.0964 17.1595C17.356 16.5129 17.9485 15.8425 18.9446 15.8425C20.248 15.8425 20.7686 16.8354 20.7686 18.2935L20.7686 24.0909L24.3701 24.0909L24.3701 17.875C24.3701 14.545 22.594 12.9969 20.2241 12.9969C18.313 12.9969 17.4565 14.047 16.9766 14.7865L16.9766 14.824L16.9524 14.824C16.9604 14.8115 16.9685 14.799 16.9766 14.7865L16.9766 13.2535L13.3765 13.2535C13.4214 14.2705 13.3765 24.0909 13.3765 24.0909L16.9766 24.0909Z"/>
		</g>
		<g id="outlineLogo">
			<path xmlns="http://www.w3.org/2000/svg" d="M0 0H52V52H0z" transform="translate(0 1)"/><path xmlns="http://www.w3.org/2000/svg" fill="#C778DD" fill-rule="evenodd" d="M14 27L26 27L26 14L0 14L0 53L26 53L26 40L13 40L13 27L14 27ZM25 41L12 41L12 26L25 26L25 15L1 15L1 52L25 52L25 41Z" clip-rule="evenodd"/><path xmlns="http://www.w3.org/2000/svg" fill="#C778DD" fill-rule="evenodd" d="M53 0L25 0L25 15L38 15L38 26L25 26L25 41L53 41L53 0ZM39 26L39 27L26 27L26 40L52 40L52 1L26 1L26 14L39 14L39 26Z" clip-rule="evenodd"/>
		</g>
		<g id="telegram">
			<path xmlns="http://www.w3.org/2000/svg" fill="#ABB2BF" d="M27 15.5C27 18.55 25.7883 21.4751 23.6318 23.6317C21.4751 25.7885 18.55 27 15.5 27C12.45 27 9.5249 25.7885 7.36816 23.6317C5.21167 21.4751 4 18.55 4 15.5C4 12.45 5.21167 9.5249 7.36816 7.36829C9.5249 5.21155 12.45 4 15.5 4C18.55 4 21.4751 5.21155 23.6318 7.36829C25.7883 9.5249 27 12.45 27 15.5ZM15.9126 12.4899C14.7942 12.9556 12.5574 13.9187 9.20508 15.3793C8.66187 15.5948 8.37573 15.8076 8.34985 16.0146C8.30664 16.3639 8.74512 16.502 9.3418 16.6903L9.59326 16.7693C10.1799 16.9604 10.9705 17.1833 11.3801 17.1919C11.7539 17.2006 12.1694 17.0482 12.6279 16.7319C15.7603 14.6174 17.3774 13.5493 17.478 13.5264C17.5498 13.509 17.6504 13.4889 17.7166 13.5493C17.7842 13.6083 17.7771 13.7218 17.7698 13.752C17.7268 13.9374 16.0061 15.5359 15.1162 16.3639C14.8389 16.6227 14.6418 16.8053 14.6016 16.8469C14.5129 16.9375 14.4229 17.0266 14.3313 17.1143C13.7852 17.6404 13.3767 18.0343 14.3528 18.6783C14.823 18.9888 15.1995 19.2433 15.5747 19.4991C15.9829 19.778 16.3914 20.0554 16.9202 20.4033C17.054 20.4895 17.1833 20.583 17.3083 20.6721C17.7842 21.0114 18.2141 21.3162 18.7415 21.2672C19.0491 21.2385 19.3669 20.951 19.5278 20.0885C19.9087 18.0515 20.6577 13.6399 20.8303 11.8214C20.8408 11.6703 20.8345 11.5184 20.8115 11.3687C20.7981 11.2478 20.7395 11.1364 20.6477 11.0566C20.5168 10.9664 20.3608 10.9197 20.2021 10.923C19.7708 10.9302 19.1052 11.1616 15.9126 12.4899Z"/>
		</g>
		<g id="twitter">
			<path xmlns="http://www.w3.org/2000/svg" fill="#ABB2BF" d="M11.2249 26C19.9045 26 24.6526 18.6884 24.6526 12.3588C24.6526 12.1542 24.6526 11.9467 24.644 11.7419C25.5684 11.0616 26.3662 10.2194 27 9.25464C26.1365 9.6416 25.2214 9.89673 24.2847 10.0116C25.2715 9.41187 26.0105 8.46826 26.3647 7.3562C25.4375 7.91455 24.4226 8.30664 23.3645 8.51514C22.6533 7.74487 21.7119 7.23474 20.6865 7.06348C19.6611 6.89233 18.6089 7.06958 17.6926 7.56799C16.7764 8.06641 16.0474 8.85803 15.6184 9.82031C15.1897 10.7825 15.0847 11.8617 15.3203 12.8907C13.4441 12.795 11.6084 12.2994 9.93262 11.4362C8.25684 10.5729 6.77832 9.36108 5.59277 7.87939C4.99097 8.93616 4.80737 10.1862 5.0791 11.3756C5.35083 12.5649 6.05762 13.6046 7.05615 14.2834C6.30786 14.2576 5.57617 14.0533 4.91992 13.6873L4.91992 13.7529C4.92139 14.86 5.29858 15.9326 5.98779 16.7896C6.67725 17.6465 7.63647 18.2351 8.70361 18.4559C8.29858 18.5693 7.88013 18.626 7.45996 18.624C7.16382 18.6249 6.86841 18.597 6.57739 18.5406C6.87891 19.4937 7.46631 20.3269 8.25684 20.9236C9.04736 21.5203 10.0017 21.8507 10.9863 21.8684C9.31372 23.204 7.2478 23.9282 5.12134 23.9247C4.74658 23.9264 4.37207 23.9044 4 23.859C6.15845 25.2579 8.66504 26.0009 11.2249 26Z"/>
		</g>
		<g id="quote">
			<path xmlns="http://www.w3.org/2000/svg" fill="#ABB2BF" d="M10.5601 15.616C10.5601 17.0453 10.0374 18.2507 8.99194 19.232C7.96802 20.2133 6.71997 20.704 5.24805 20.704C3.73328 20.704 2.47461 20.2133 1.47205 19.232C0.490723 18.2507 0 17.0453 0 15.616C0 14.9333 0.0959473 14.208 0.287964 13.44C0.47998 12.672 0.864014 11.68 1.43994 10.464L6.40002 0L11.2 0L8.54395 11.584C9.14136 12.0107 9.62134 12.576 9.98401 13.28C10.368 13.9627 10.5601 14.7413 10.5601 15.616ZM24.8 15.616C24.8 17.0453 24.2773 18.2507 23.2321 19.232C22.1866 20.2133 20.9387 20.704 19.488 20.704C18.016 20.704 16.7679 20.2133 15.744 19.232C14.7413 18.2507 14.24 17.0453 14.24 15.616C14.24 14.9333 14.3361 14.208 14.528 13.44C14.72 12.672 15.1146 11.68 15.712 10.464L20.704 0L25.472 0L22.7841 11.584C23.4027 12.0107 23.8933 12.576 24.256 13.28C24.6187 13.9627 24.8 14.7413 24.8 15.616Z"/>
		</g>
</svg>



