<svg width="32.000000" height="32.000000" viewBox="0 0 32 32" fill="none" xmlns="http://www.w3.org/2000/svg" xmlns:xlink="http://www.w3.org/1999/xlink">
	<desc>
			Created with Pixso.
	</desc>
	<defs/>
	<path id="Vector" d="M27 15.5C27 18.55 25.7883 21.4751 23.6318 23.6317C21.4751 25.7885 18.55 27 15.5 27C12.45 27 9.5249 25.7885 7.36816 23.6317C5.21167 21.4751 4 18.55 4 15.5C4 12.45 5.21167 9.5249 7.36816 7.36829C9.5249 5.21155 12.45 4 15.5 4C18.55 4 21.4751 5.21155 23.6318 7.36829C25.7883 9.5249 27 12.45 27 15.5ZM15.9126 12.4899C14.7942 12.9556 12.5574 13.9187 9.20508 15.3793C8.66187 15.5948 8.37573 15.8076 8.34985 16.0146C8.30664 16.3639 8.74512 16.502 9.3418 16.6903L9.59326 16.7693C10.1799 16.9604 10.9705 17.1833 11.3801 17.1919C11.7539 17.2006 12.1694 17.0482 12.6279 16.7319C15.7603 14.6174 17.3774 13.5493 17.478 13.5264C17.5498 13.509 17.6504 13.4889 17.7166 13.5493C17.7842 13.6083 17.7771 13.7218 17.7698 13.752C17.7268 13.9374 16.0061 15.5359 15.1162 16.3639C14.8389 16.6227 14.6418 16.8053 14.6016 16.8469C14.5129 16.9375 14.4229 17.0266 14.3313 17.1143C13.7852 17.6404 13.3767 18.0343 14.3528 18.6783C14.823 18.9888 15.1995 19.2433 15.5747 19.4991C15.9829 19.778 16.3914 20.0554 16.9202 20.4033C17.054 20.4895 17.1833 20.583 17.3083 20.6721C17.7842 21.0114 18.2141 21.3162 18.7415 21.2672C19.0491 21.2385 19.3669 20.951 19.5278 20.0885C19.9087 18.0515 20.6577 13.6399 20.8303 11.8214C20.8408 11.6703 20.8345 11.5184 20.8115 11.3687C20.7981 11.2478 20.7395 11.1364 20.6477 11.0566C20.5168 10.9664 20.3608 10.9197 20.2021 10.923C19.7708 10.9302 19.1052 11.1616 15.9126 12.4899Z" fill="#ABB2BF" fill-opacity="1.000000" fill-rule="nonzero"/>
</svg>
