<svg width="32.000000" height="32.000000" viewBox="0 0 32 32" fill="none" xmlns="http://www.w3.org/2000/svg" xmlns:xlink="http://www.w3.org/1999/xlink">
	<desc>
			Created with Pixso.
	</desc>
	<defs/>
	<path id="Vector" d="M11.2249 26C19.9045 26 24.6526 18.6884 24.6526 12.3588C24.6526 12.1542 24.6526 11.9467 24.644 11.7419C25.5684 11.0616 26.3662 10.2194 27 9.25464C26.1365 9.6416 25.2214 9.89673 24.2847 10.0116C25.2715 9.41187 26.0105 8.46826 26.3647 7.3562C25.4375 7.91455 24.4226 8.30664 23.3645 8.51514C22.6533 7.74487 21.7119 7.23474 20.6865 7.06348C19.6611 6.89233 18.6089 7.06958 17.6926 7.56799C16.7764 8.06641 16.0474 8.85803 15.6184 9.82031C15.1897 10.7825 15.0847 11.8617 15.3203 12.8907C13.4441 12.795 11.6084 12.2994 9.93262 11.4362C8.25684 10.5729 6.77832 9.36108 5.59277 7.87939C4.99097 8.93616 4.80737 10.1862 5.0791 11.3756C5.35083 12.5649 6.05762 13.6046 7.05615 14.2834C6.30786 14.2576 5.57617 14.0533 4.91992 13.6873L4.91992 13.7529C4.92139 14.86 5.29858 15.9326 5.98779 16.7896C6.67725 17.6465 7.63647 18.2351 8.70361 18.4559C8.29858 18.5693 7.88013 18.626 7.45996 18.624C7.16382 18.6249 6.86841 18.597 6.57739 18.5406C6.87891 19.4937 7.46631 20.3269 8.25684 20.9236C9.04736 21.5203 10.0017 21.8507 10.9863 21.8684C9.31372 23.204 7.2478 23.9282 5.12134 23.9247C4.74658 23.9264 4.37207 23.9044 4 23.859C6.15845 25.2579 8.66504 26.0009 11.2249 26Z" fill="#ABB2BF" fill-opacity="1.000000" fill-rule="nonzero"/>
</svg>
